<mxfile host="Electron" modified="2023-09-20T10:03:42.732Z" agent="Mozilla/5.0 (Windows NT 10.0; Win64; x64) AppleWebKit/537.36 (KHTML, like Gecko) draw.io/21.7.5 Chrome/114.0.5735.289 Electron/25.8.1 Safari/537.36" etag="nwB_HDfV917rrQ3WTdK8" version="21.7.5" type="device">
  <diagram name="Page-1" id="ZUQgte62Madrcj-jCHu3">
    <mxGraphModel dx="980" dy="566" grid="1" gridSize="10" guides="1" tooltips="1" connect="1" arrows="1" fold="1" page="1" pageScale="1" pageWidth="850" pageHeight="1100" background="none" math="0" shadow="0">
      <root>
        <mxCell id="0" />
        <mxCell id="1" parent="0" />
        <mxCell id="hLnkSRGozWpVr84KyX-k-1" value="" style="endArrow=none;html=1;rounded=0;" edge="1" parent="1">
          <mxGeometry width="50" height="50" relative="1" as="geometry">
            <mxPoint x="240" y="600" as="sourcePoint" />
            <mxPoint x="720" y="600" as="targetPoint" />
          </mxGeometry>
        </mxCell>
        <mxCell id="hLnkSRGozWpVr84KyX-k-2" value="" style="endArrow=classic;html=1;rounded=0;" edge="1" parent="1">
          <mxGeometry width="50" height="50" relative="1" as="geometry">
            <mxPoint x="40" y="600.0000000000002" as="sourcePoint" />
            <mxPoint x="160" y="600.0000000000002" as="targetPoint" />
          </mxGeometry>
        </mxCell>
        <mxCell id="hLnkSRGozWpVr84KyX-k-3" value="" style="endArrow=classic;html=1;rounded=0;" edge="1" parent="1">
          <mxGeometry width="50" height="50" relative="1" as="geometry">
            <mxPoint x="40" y="600.0000000000002" as="sourcePoint" />
            <mxPoint x="40" y="480.0000000000002" as="targetPoint" />
          </mxGeometry>
        </mxCell>
        <mxCell id="hLnkSRGozWpVr84KyX-k-4" value="" style="ellipse;whiteSpace=wrap;html=1;aspect=fixed;fillColor=none;connectable=1;allowArrows=0;" vertex="1" parent="1">
          <mxGeometry x="30" y="590.0000000000002" width="20" height="20" as="geometry" />
        </mxCell>
        <mxCell id="hLnkSRGozWpVr84KyX-k-5" value="" style="endArrow=none;html=1;rounded=0;exitX=1;exitY=1;exitDx=0;exitDy=0;entryX=0;entryY=0;entryDx=0;entryDy=0;" edge="1" source="hLnkSRGozWpVr84KyX-k-4" target="hLnkSRGozWpVr84KyX-k-4" parent="1">
          <mxGeometry width="50" height="50" relative="1" as="geometry">
            <mxPoint x="90" y="620.0000000000002" as="sourcePoint" />
            <mxPoint x="30" y="590.0000000000002" as="targetPoint" />
          </mxGeometry>
        </mxCell>
        <mxCell id="hLnkSRGozWpVr84KyX-k-6" value="" style="endArrow=none;html=1;rounded=0;exitX=0;exitY=1;exitDx=0;exitDy=0;entryX=1;entryY=0;entryDx=0;entryDy=0;" edge="1" source="hLnkSRGozWpVr84KyX-k-4" target="hLnkSRGozWpVr84KyX-k-4" parent="1">
          <mxGeometry width="50" height="50" relative="1" as="geometry">
            <mxPoint x="47" y="607.0000000000002" as="sourcePoint" />
            <mxPoint x="33" y="593.0000000000002" as="targetPoint" />
          </mxGeometry>
        </mxCell>
        <mxCell id="hLnkSRGozWpVr84KyX-k-7" value="x" style="text;strokeColor=none;align=center;fillColor=none;html=1;verticalAlign=middle;whiteSpace=wrap;rounded=0;" vertex="1" parent="1">
          <mxGeometry x="120" y="600.0000000000002" width="60" height="20" as="geometry" />
        </mxCell>
        <mxCell id="hLnkSRGozWpVr84KyX-k-8" value="z" style="text;strokeColor=none;align=center;fillColor=none;html=1;verticalAlign=middle;whiteSpace=wrap;rounded=0;" vertex="1" parent="1">
          <mxGeometry y="470.0000000000002" width="60" height="30" as="geometry" />
        </mxCell>
        <mxCell id="hLnkSRGozWpVr84KyX-k-9" value="y" style="text;strokeColor=none;align=center;fillColor=none;html=1;verticalAlign=middle;whiteSpace=wrap;rounded=0;" vertex="1" parent="1">
          <mxGeometry y="600.0000000000002" width="50" height="20" as="geometry" />
        </mxCell>
        <mxCell id="hLnkSRGozWpVr84KyX-k-10" value="" style="rounded=0;whiteSpace=wrap;html=1;" vertex="1" parent="1">
          <mxGeometry x="240" y="310" width="30" height="290" as="geometry" />
        </mxCell>
        <mxCell id="hLnkSRGozWpVr84KyX-k-11" value="Cargo door" style="text;html=1;align=center;verticalAlign=middle;resizable=0;points=[];autosize=1;strokeColor=none;fillColor=none;" vertex="1" parent="1">
          <mxGeometry x="210" y="280" width="80" height="30" as="geometry" />
        </mxCell>
        <mxCell id="hLnkSRGozWpVr84KyX-k-12" value="" style="endArrow=none;html=1;rounded=0;" edge="1" parent="1">
          <mxGeometry width="50" height="50" relative="1" as="geometry">
            <mxPoint x="720" y="600" as="sourcePoint" />
            <mxPoint x="720" y="360" as="targetPoint" />
          </mxGeometry>
        </mxCell>
        <mxCell id="hLnkSRGozWpVr84KyX-k-14" value="" style="triangle;whiteSpace=wrap;html=1;rotation=-15;" vertex="1" parent="1">
          <mxGeometry x="710" y="340" width="20" height="24.15" as="geometry" />
        </mxCell>
        <mxCell id="hLnkSRGozWpVr84KyX-k-15" value="" style="endArrow=none;html=1;rounded=0;entryX=0;entryY=0.5;entryDx=0;entryDy=0;exitX=1;exitY=0.5;exitDx=0;exitDy=0;" edge="1" parent="1" source="hLnkSRGozWpVr84KyX-k-14" target="hLnkSRGozWpVr84KyX-k-14">
          <mxGeometry width="50" height="50" relative="1" as="geometry">
            <mxPoint x="530" y="440" as="sourcePoint" />
            <mxPoint x="700" y="360" as="targetPoint" />
          </mxGeometry>
        </mxCell>
        <mxCell id="hLnkSRGozWpVr84KyX-k-16" value="&lt;font style=&quot;font-size: 10px;&quot;&gt;Actor 1&lt;/font&gt;" style="shape=umlActor;verticalLabelPosition=bottom;verticalAlign=top;html=1;outlineConnect=0;" vertex="1" parent="1">
          <mxGeometry x="320" y="560" width="20" height="40" as="geometry" />
        </mxCell>
        <mxCell id="hLnkSRGozWpVr84KyX-k-17" value="&lt;font style=&quot;font-size: 10px;&quot;&gt;Actor 2&lt;/font&gt;" style="shape=umlActor;verticalLabelPosition=bottom;verticalAlign=top;html=1;outlineConnect=0;" vertex="1" parent="1">
          <mxGeometry x="540" y="560" width="20" height="40" as="geometry" />
        </mxCell>
        <mxCell id="hLnkSRGozWpVr84KyX-k-19" value="" style="endArrow=classic;html=1;rounded=0;exitX=0.5;exitY=0.5;exitDx=0;exitDy=0;exitPerimeter=0;fillColor=#d5e8d4;strokeColor=#82b366;" edge="1" parent="1" source="hLnkSRGozWpVr84KyX-k-16">
          <mxGeometry width="50" height="50" relative="1" as="geometry">
            <mxPoint x="470" y="520" as="sourcePoint" />
            <mxPoint x="360" y="580" as="targetPoint" />
          </mxGeometry>
        </mxCell>
        <mxCell id="hLnkSRGozWpVr84KyX-k-20" value="" style="endArrow=classic;html=1;rounded=0;exitX=0.5;exitY=0.5;exitDx=0;exitDy=0;exitPerimeter=0;fillColor=#dae8fc;strokeColor=#6c8ebf;" edge="1" parent="1" source="hLnkSRGozWpVr84KyX-k-17">
          <mxGeometry width="50" height="50" relative="1" as="geometry">
            <mxPoint x="340" y="590" as="sourcePoint" />
            <mxPoint x="520" y="580" as="targetPoint" />
          </mxGeometry>
        </mxCell>
      </root>
    </mxGraphModel>
  </diagram>
</mxfile>
